<?xml version="1.0" encoding="UTF-8" standalone="no"?>
<!-- Created with Inkscape (http://www.inkscape.org/) -->

<svg
   width="512"
   height="512"
   viewBox="0 0 135.46666 135.46667"
   version="1.1"
   id="svg5"
   inkscape:version="1.1.2 (0a00cf5339, 2022-02-04)"
   sodipodi:docname="icon.svg"
   xmlns:inkscape="http://www.inkscape.org/namespaces/inkscape"
   xmlns:sodipodi="http://sodipodi.sourceforge.net/DTD/sodipodi-0.dtd"
   xmlns="http://www.w3.org/2000/svg"
   xmlns:svg="http://www.w3.org/2000/svg">
  <sodipodi:namedview
     id="namedview7"
     pagecolor="#ffffff"
     bordercolor="#666666"
     borderopacity="1.0"
     inkscape:pageshadow="2"
     inkscape:pageopacity="0.0"
     inkscape:pagecheckerboard="0"
     inkscape:document-units="mm"
     showgrid="false"
     units="px"
     width="512px"
     inkscape:zoom="0.77771465"
     inkscape:cx="194.15862"
     inkscape:cy="292.52374"
     inkscape:window-width="1884"
     inkscape:window-height="1059"
     inkscape:window-x="36"
     inkscape:window-y="21"
     inkscape:window-maximized="1"
     inkscape:current-layer="layer1" />
  <defs
     id="defs2">
    <clipPath
       clipPathUnits="userSpaceOnUse"
       id="clipPath375">
      <ellipse
         style="fill:none;fill-opacity:1;stroke:#b3b3b3;stroke-width:0.264583;stroke-opacity:1"
         id="ellipse375"
         clip-path="none"
         mask="none"
         ry="12.648939"
         rx="12.480512"
         cy="153.50446"
         cx="124.43472" />
    </clipPath>
    <inkscape:path-effect
       effect="bspline"
       id="path-effect76"
       is_visible="true"
       lpeversion="1.3"
       weight="33.333333"
       steps="2"
       helper_size="0"
       apply_no_weight="true"
       apply_with_weight="true"
       only_selected="false"
       uniform="false" />
    <inkscape:path-effect
       effect="bspline"
       id="path-effect78"
       is_visible="true"
       lpeversion="1.3"
       weight="33.333333"
       steps="2"
       helper_size="0"
       apply_no_weight="true"
       apply_with_weight="true"
       only_selected="false"
       uniform="false" />
  </defs>
  <g
     inkscape:label="Capa 1"
     inkscape:groupmode="layer"
     id="layer1">
    <ellipse
       style="fill:#ffffff;stroke-width:0.742679;stroke-linecap:square;stroke-linejoin:bevel"
       id="path337"
       cx="68.278313"
       cy="68.260651"
       rx="64.005684"
       ry="62.870964" />
    <g
       id="g75"
       transform="matrix(4.73794,0,0,4.73794,-521.27337,-661.90237)"
       clip-path="url(#clipPath375)"
       mask="none">
      <path
         style="fill:#333333;fill-opacity:1;stroke:#333333;stroke-width:0.264583;stroke-opacity:1"
         d="m 135.34293,161.38748 0.13392,3.09107 v 2.74983 l -5.0747,-0.0959 c 0,0 0.13369,-0.75423 0.15987,-1.1356 0.1011,-1.47275 -0.0123,-4.42862 -0.0123,-4.42862 v -1.11852 l 4.75968,-0.0327 z"
         id="path54"
         sodipodi:nodetypes="ccccscccc" />
      <path
         style="fill:#333333;fill-opacity:1;stroke:#333333;stroke-width:0.342551;stroke-opacity:1"
         d="m 128.35279,162.0244 0.09,4.43397 0.13721,1.33643 -8.61015,-0.0947 c 0,0 -0.0591,-1.60863 -0.0147,-1.98539 0.17153,-1.45498 0.26507,-3.51167 0.26507,-3.51167 v -1.10502 l 8.07566,-0.0323 z"
         id="path55"
         sodipodi:nodetypes="ccccscccc" />
      <path
         style="fill:#ff6600;fill-opacity:1;stroke:#ff6600;stroke-width:0.264583;stroke-opacity:1"
         d="m 116.91909,152.66017 c 0,0 -1.83052,-0.14955 -2.23612,0.49741 -1.42051,2.26579 -1.49223,8.2299 -1.49223,8.2299 l 3.40281,-0.0453 1.39042,0.22606 v -3.7532 l 1.22092,2.75838 0.47612,5.20021 c 0,0 0.83022,-0.1868 1.25272,-0.22609 2.17741,-0.20248 4.39052,-0.31791 6.56024,-0.0452 0.41194,0.0518 1.20463,0.31653 1.20463,0.31653 l 0.54496,-5.51675 1.08526,-2.48706 v 3.70798 l 1.67312,-0.18087 3.301,-0.13568 c 0,0 0.27902,-5.93322 -1.53745,-7.91337 -0.55683,-0.60701 -2.37625,-0.67833 -2.37625,-0.67833 l -14.47015,0.0453"
         id="path56"
         sodipodi:nodetypes="ccccccccssccccccccc" />
      <path
         style="fill:#1a1a1a;fill-opacity:1;stroke:#333333;stroke-width:0.264583;stroke-opacity:1"
         d="m 113.19074,161.38748 -0.13392,3.09107 v 2.74983 l 5.0747,-0.0959 c 0,0 -0.13369,-0.75423 -0.15987,-1.1356 -0.1011,-1.47275 0.0123,-4.42862 0.0123,-4.42862 v -1.11852 l -4.75968,-0.0327 z"
         id="path57"
         sodipodi:nodetypes="ccccscccc" />
      <path
         style="fill:#d45500;fill-opacity:1;stroke:#d45500;stroke-width:0.264583;stroke-opacity:1"
         d="m 116.91909,152.66017 c 0,0 -1.83052,-0.14955 -2.23612,0.49741 -1.42051,2.26579 -1.49223,8.2299 -1.49223,8.2299 l 3.40281,-0.0453 1.39042,0.22606 v -3.7532 l 1.22092,2.75838 0.47612,5.20021 c 0,0 0.83022,-0.1868 1.25272,-0.22609 l 3.22044,-12.9101"
         id="path58"
         sodipodi:nodetypes="cccccccccc" />
      <g
         id="g66"
         transform="matrix(0.04658973,0,0,0.04658973,119.86823,153.48297)"
         style="fill:#ffffff">
        <path
           style="fill:#ffffff;fill-opacity:1;stroke:none;stroke-width:0.264583;stroke-opacity:1"
           d="m 156.38648,129.96998 10.32334,-1.40689 -0.74096,10.10404 -10.56926,1.40689 z"
           id="path59"
           sodipodi:nodetypes="ccccc" />
        <path
           style="fill:#ffffff;fill-opacity:1;stroke:none;stroke-width:0.264583;stroke-opacity:1"
           d="m 178.09172,108.26474 10.32334,-1.40689 -0.74096,10.10404 -10.56926,1.40689 z"
           id="path60"
           sodipodi:nodetypes="ccccc" />
        <path
           style="fill:#ffffff;fill-opacity:1;stroke:none;stroke-width:0.264583;stroke-opacity:1"
           d="m 178.68068,138.98479 -1.40689,-10.32334 10.10404,0.74096 1.40689,10.56926 z"
           id="path61"
           sodipodi:nodetypes="ccccc" />
        <path
           style="fill:#ffffff;fill-opacity:1;stroke:none;stroke-width:0.264583;stroke-opacity:1"
           d="m 156.70412,117.27955 -1.40689,-10.32333 10.10404,0.74096 1.40689,10.56925 z"
           id="path62"
           sodipodi:nodetypes="ccccc" />
        <path
           style="fill:#ffffff;fill-opacity:1;stroke:none;stroke-width:0.264583;stroke-opacity:1"
           d="m 165.7551,139.08157 6.30488,-8.29451 6.6207,7.66856 -6.47877,8.46841 z"
           id="path63"
           sodipodi:nodetypes="ccccc" />
        <path
           style="fill:#ffffff;fill-opacity:1;stroke:none;stroke-width:0.264583;stroke-opacity:1"
           d="m 165.62501,108.49389 6.30488,-8.29452 6.6207,7.66857 -6.47877,8.46841 z"
           id="path64"
           sodipodi:nodetypes="ccccc" />
        <path
           style="fill:#ffffff;fill-opacity:1;stroke:none;stroke-width:0.264583;stroke-opacity:1"
           d="m 157.21008,129.76787 -8.29452,-6.30488 7.66857,-6.6207 8.46841,6.47877 z"
           id="path65"
           sodipodi:nodetypes="ccccc" />
        <path
           style="fill:#ffffff;fill-opacity:1;stroke:none;stroke-width:0.264583;stroke-opacity:1"
           d="m 187.42648,129.76787 -8.29452,-6.30488 7.66857,-6.6207 8.46841,6.47877 z"
           id="path66"
           sodipodi:nodetypes="ccccc" />
      </g>
      <path
         style="fill:#333333;stroke:#333333;stroke-width:0.264583;stroke-opacity:1"
         d="m 88.448842,152.66017 c 0.617997,-0.72351 1.235981,-1.447 1.612816,-2.75085 0.376834,-1.30385 0.512489,-3.18794 0.648146,-5.07208 0.798873,-0.97975 1.597747,-1.9595 2.954325,-2.41924 1.356578,-0.45973 3.270858,-0.39946 4.37873,-0.25627 1.107872,0.14319 1.409332,0.36929 1.81631,0.85164 0.406981,0.48234 0.919451,1.22091 1.431941,1.95949 0.15073,2.1856 0.30146,4.37119 0.57278,5.64487 0.27132,1.27368 0.66321,1.63543 1.05511,1.99718 -0.37683,0 -0.75365,0 -0.66321,0.23363 0.0904,0.23364 0.64814,0.7009 1.20584,1.16817 0,0 -2.08008,0 -2.08008,0 0,0 0.58785,1.98964 0.58785,1.98964 0,0 -2.306186,0 -2.306186,0 0,0 -0.135657,1.62789 -0.135657,1.62789 0,0 -2.125305,-0.67828 -2.125305,-0.67828 0,0 -1.1757,1.58267 -1.1757,1.58267 0,0 -2.080085,-1.53745 -2.080085,-1.53745 0,0 -1.808771,0.81394 -1.808771,0.81394 0,0 -0.271315,-1.71833 -0.271315,-1.71833 0,0 -2.125305,-0.0452 -2.125305,-0.0452 0,0 0.361754,-1.94443 0.361754,-1.94443 0,0 -1.899208,0 -1.899208,0 0.422047,-0.51248 0.844095,-1.02497 0.851632,-1.26614 0.0075,-0.24118 -0.399441,-0.21104 -0.602927,-0.19598 -0.203485,0.0151 -0.203485,0.0151 -0.203485,0.0151 z"
         id="path67"
         sodipodi:nodetypes="cccccccccccccccccccccccccc"
         transform="translate(28.470248)"
         inkscape:original-d="m 88.448842,152.66017 c 0,0 1.235979,-1.447 1.85399,-2.17052 0.135661,-1.88418 0.406972,-5.65241 0.406972,-5.65241 0,0 1.597747,-1.9595 2.39662,-2.93925 1.914282,0.0603 3.828563,0.12055 5.742845,0.18083 0.301462,0.2261 0.602921,0.4522 0.904385,0.6783 0.512496,0.73859 1.537456,2.21574 1.537456,2.21574 0,0 0.30146,4.37119 0.45219,6.55679 0.39191,0.36176 1.1757,1.08526 1.1757,1.08526 -0.37683,0 -0.75365,0 -1.13048,0 0.5577,0.46727 1.67311,1.4018 1.67311,1.4018 h -2.08008 l 0.58785,1.98964 h -2.306186 l -0.135657,1.62789 -2.125305,-0.67828 -1.1757,1.58267 -2.080085,-1.53745 -1.808771,0.81394 -0.271315,-1.71833 -2.125305,-0.0452 0.361754,-1.94443 h -1.899208 c 0,0 0.844093,-1.02497 1.26614,-1.53745 -0.406973,0.0301 -0.813947,0.0603 -1.22092,0.0904 z"
         inkscape:path-effect="#path-effect76" />
      <path
         style="fill:#1a1a1a;stroke:#1a1a1a;stroke-width:0.264583;stroke-opacity:1"
         d="m 88.448842,152.66017 c 0.617997,-0.72351 1.235981,-1.447 1.612816,-2.75085 0.376834,-1.30385 0.512489,-3.18794 0.648146,-5.07208 0.798873,-0.97975 1.597747,-1.9595 2.954325,-2.41924 1.356578,-0.45973 3.270858,-0.39946 4.37873,-0.25627 1.107872,0.14319 1.409332,0.36929 1.706148,0.89937 0.296813,0.53009 0.588973,1.36414 0.881143,2.1982 0,0 -6.045566,12.0657 -6.045566,12.0657 0,0 -2.246888,0.49012 -2.246888,0.49012 -0.09044,-0.57278 -0.180876,-1.14555 -0.580315,-1.43947 -0.399439,-0.29393 -1.107869,-0.30899 -1.401795,-0.6406 -0.293926,-0.3316 -0.17334,-0.97975 -0.429583,-1.30382 -0.256242,-0.32407 -0.889312,-0.32407 -1.522381,-0.32407 0.422047,-0.51248 0.844095,-1.02497 0.851632,-1.26614 0.0075,-0.24118 -0.399441,-0.21104 -0.602927,-0.19598 -0.203485,0.0151 -0.203485,0.0151 -0.203485,0.0151 z"
         id="path68"
         sodipodi:nodetypes="cccccccccccccccc"
         transform="translate(28.470248)"
         inkscape:original-d="m 88.448842,152.66017 c 0,0 1.235979,-1.447 1.85399,-2.17052 0.135661,-1.88418 0.406972,-5.65241 0.406972,-5.65241 0,0 1.597747,-1.9595 2.39662,-2.93925 1.914282,0.0603 3.828563,0.12055 5.742845,0.18083 0.301462,0.2261 0.602921,0.4522 0.904385,0.6783 0.292166,0.83407 0.876496,2.50218 0.876496,2.50218 l -6.045566,12.0657 -2.246888,0.49012 c 0,0 -0.180877,-1.14555 -0.271315,-1.71833 -0.708438,-0.0151 -1.41687,-0.0301 -2.125305,-0.0452 0.120585,-0.64814 0.241169,-1.29629 0.361754,-1.94443 -0.633069,0 -1.266139,0 -1.899208,0 0,0 0.844093,-1.02497 1.26614,-1.53745 -0.406973,0.0301 -0.813947,0.0603 -1.22092,0.0904 z"
         inkscape:path-effect="#path-effect78" />
      <path
         style="fill:#ffcc00;stroke:#000000;stroke-width:0.264583;stroke-opacity:1"
         d="m 120.3993,148.5 1.98965,-0.90439 0.58785,-0.85916 0.13566,-1.08526 0.0452,-0.4522 2.26096,-0.0904 0.58785,1.98964 0.36175,0.40697 1.94443,0.99483 0.2261,0.76873 -1.76356,0.76863 -0.7235,0.9497 -0.99483,1.26614 h -1.1757 l -0.99482,-1.31136 -1.04004,-0.90448 -1.44702,-0.81385 z"
         id="path69" />
      <path
         style="fill:#ffffff;stroke:#000000;stroke-width:0.264583;stroke-opacity:1"
         d="m 120.6254,144.18156 1.37918,0.79073 c 0,0 0.15358,1.26242 -0.0678,1.83199 -0.14756,0.37965 -0.38731,0.8794 -0.79133,0.93111 -0.48398,0.0619 -0.9732,-0.40778 -1.19831,-0.84068 -0.29563,-0.56854 0,-1.92242 0,-1.92242 z"
         id="path70"
         sodipodi:nodetypes="ccssscc" />
      <ellipse
         style="fill:#ffffff;stroke:#ffffff;stroke-width:0.0909737;stroke-opacity:1"
         id="ellipse70"
         cx="125.2523"
         cy="146.30219"
         rx="0.05835956"
         ry="0.11728278" />
      <path
         style="fill:#ffffff;stroke:#000000;stroke-width:0.264583;stroke-opacity:1"
         d="m 127.80368,144.18156 -1.37918,0.79073 c 0,0 -0.15358,1.26242 0.0678,1.83199 0.14756,0.37965 0.38731,0.8794 0.79133,0.93111 0.48398,0.0619 0.9732,-0.40778 1.19831,-0.84068 0.29563,-0.56854 0,-1.92242 0,-1.92242 z"
         id="path71"
         sodipodi:nodetypes="ccssscc" />
      <ellipse
         style="fill:#000000;fill-opacity:1;stroke:#000000;stroke-width:0.690244;stroke-opacity:1"
         id="ellipse71"
         cx="121.38362"
         cy="145.85655"
         rx="0.41099888"
         ry="0.95868999" />
      <ellipse
         style="fill:#000000;fill-opacity:1;stroke:#000000;stroke-width:0.690244;stroke-opacity:1"
         id="ellipse72"
         cx="127.12984"
         cy="145.85655"
         rx="0.41099888"
         ry="0.95868999" />
      <ellipse
         style="fill:#ffffff;stroke:#ffffff;stroke-width:0.230444;stroke-opacity:1"
         id="ellipse73"
         cx="121.79462"
         cy="146.15364"
         rx="0.14782953"
         ry="0.29708686" />
      <ellipse
         style="fill:#ffffff;stroke:#ffffff;stroke-width:0.230444;stroke-opacity:1"
         id="ellipse74"
         cx="126.65383"
         cy="146.15364"
         rx="0.14782953"
         ry="0.29708686" />
      <path
         style="fill:#d4aa00;stroke:#000000;stroke-width:0.264583;stroke-opacity:1"
         d="m 120.3993,148.5 1.98965,-0.90439 0.58785,-0.85916 0.18088,-1.53746 1.13048,-0.0452 0.19465,0.0879 -0.0138,7.01151 h -0.58785 l -0.79134,-0.65568 -1.24352,-1.56016 -1.44702,-0.81385 z"
         id="path74"
         sodipodi:nodetypes="cccccccccccc" />
      <path
         style="fill:#1a1a1a;stroke:#000000;stroke-width:0.264583;stroke-opacity:1"
         d="m 121.33674,149.17859 1.40689,10e-6 1.73918,1.99843 1.39436,-1.91849 1.87053,-0.048 -1.26301,0.60752 -2.00188,1.87053 -1.97899,-1.65126 z"
         id="path75"
         sodipodi:nodetypes="ccccccccc" />
      <ellipse
         style="fill:#ffffff;stroke:#ffffff;stroke-width:0.0909737;stroke-opacity:1"
         id="ellipse75"
         cx="123.56709"
         cy="146.30219"
         rx="0.05835956"
         ry="0.11728278" />
    </g>
  </g>
</svg>
