<?xml version="1.0" encoding="UTF-8" standalone="no"?>
<!-- Created with Inkscape (http://www.inkscape.org/) -->

<svg
   width="210mm"
   height="297mm"
   viewBox="0 0 210 297"
   version="1.1"
   id="svg5"
   inkscape:version="1.1.2 (0a00cf5339, 2022-02-04)"
   sodipodi:docname="dibujo.svg"
   xmlns:inkscape="http://www.inkscape.org/namespaces/inkscape"
   xmlns:sodipodi="http://sodipodi.sourceforge.net/DTD/sodipodi-0.dtd"
   xmlns="http://www.w3.org/2000/svg"
   xmlns:svg="http://www.w3.org/2000/svg">
  <sodipodi:namedview
     id="namedview7"
     pagecolor="#ffffff"
     bordercolor="#666666"
     borderopacity="1.0"
     inkscape:pageshadow="2"
     inkscape:pageopacity="0.0"
     inkscape:pagecheckerboard="0"
     inkscape:document-units="mm"
     showgrid="false"
     inkscape:zoom="1.5554293"
     inkscape:cx="386.06705"
     inkscape:cy="551.29475"
     inkscape:window-width="1884"
     inkscape:window-height="1059"
     inkscape:window-x="36"
     inkscape:window-y="21"
     inkscape:window-maximized="1"
     inkscape:current-layer="layer1" />
  <defs
     id="defs2">
    <inkscape:path-effect
       effect="bspline"
       id="path-effect27"
       is_visible="true"
       lpeversion="1.3"
       weight="33.333333"
       steps="2"
       helper_size="0"
       apply_no_weight="true"
       apply_with_weight="true"
       only_selected="false"
       uniform="false" />
    <inkscape:path-effect
       effect="bspline"
       id="path-effect52"
       is_visible="true"
       lpeversion="1.3"
       weight="33.333333"
       steps="2"
       helper_size="0"
       apply_no_weight="true"
       apply_with_weight="true"
       only_selected="false"
       uniform="false" />
    <clipPath
       clipPathUnits="userSpaceOnUse"
       id="clipPath375">
      <ellipse
         style="fill:none;fill-opacity:1;stroke:#b3b3b3;stroke-width:0.264583;stroke-opacity:1"
         id="ellipse375"
         clip-path="none"
         mask="none"
         ry="12.648939"
         rx="12.480512"
         cy="153.50446"
         cx="124.43472" />
    </clipPath>
    <inkscape:path-effect
       effect="bspline"
       id="path-effect76"
       is_visible="true"
       lpeversion="1.3"
       weight="33.333333"
       steps="2"
       helper_size="0"
       apply_no_weight="true"
       apply_with_weight="true"
       only_selected="false"
       uniform="false" />
    <inkscape:path-effect
       effect="bspline"
       id="path-effect78"
       is_visible="true"
       lpeversion="1.3"
       weight="33.333333"
       steps="2"
       helper_size="0"
       apply_no_weight="true"
       apply_with_weight="true"
       only_selected="false"
       uniform="false" />
  </defs>
  <g
     inkscape:label="Capa 1"
     inkscape:groupmode="layer"
     id="layer1">
    <g
       id="g23061"
       style="fill:#ff5216;fill-opacity:1;stroke:#ff5216;stroke-opacity:1"
       transform="translate(-9.1892891,-19.287486)">
      <path
         style="fill:#ff5216;fill-opacity:1;stroke:#ff5216;stroke-width:0.264583px;stroke-linecap:butt;stroke-linejoin:miter;stroke-opacity:1"
         d="m 103.94468,127.12633 -1.60904,-10.33014 10.58613,1.51692 1.35917,10.54601 z"
         id="path136" />
      <path
         style="fill:#ff5216;fill-opacity:1;stroke:#ff5216;stroke-width:0.264583px;stroke-linecap:butt;stroke-linejoin:miter;stroke-opacity:1"
         d="m 125.71053,148.94476 -1.60904,-10.33014 10.58613,1.51692 1.35917,10.54601 z"
         id="path403" />
      <path
         style="fill:#ff5216;fill-opacity:1;stroke:#ff5216;stroke-width:0.264583px;stroke-linecap:butt;stroke-linejoin:miter;stroke-opacity:1"
         d="m 113.02774,148.8925 -10.29774,1.8048 1.31574,-10.61301 10.51832,-1.55907 z"
         id="path405" />
      <path
         style="fill:#ff5216;fill-opacity:1;stroke:#ff5216;stroke-width:0.264583px;stroke-linecap:butt;stroke-linejoin:miter;stroke-opacity:1"
         d="m 134.70853,127.19847 -10.29774,1.80479 1.31574,-10.61301 10.51832,-1.55907 z"
         id="path407" />
      <path
         style="fill:#ff5216;fill-opacity:1;stroke:#ff5216;stroke-width:0.264583px;stroke-linecap:butt;stroke-linejoin:miter;stroke-opacity:1"
         d="m 125.60485,149.17027 -6.27488,8.36221 -6.30223,-8.63998 6.60389,-8.33393 z"
         id="path409" />
      <path
         style="fill:#ff5216;fill-opacity:1;stroke:#ff5216;stroke-width:0.264583px;stroke-linecap:butt;stroke-linejoin:miter;stroke-opacity:1"
         d="m 125.72653,118.39025 -6.2749,8.3622 -6.30221,-8.63996 6.60388,-8.33394 z"
         id="path411" />
      <path
         style="fill:#ff5216;fill-opacity:1;stroke:#ff5216;stroke-width:0.264583px;stroke-linecap:butt;stroke-linejoin:miter;stroke-opacity:1"
         d="m 134.89302,127.43375 8.35928,6.27878 -8.64291,6.2982 -8.33085,-6.60777 z"
         id="path413" />
      <path
         style="fill:#ff5216;fill-opacity:1;stroke:#ff5216;stroke-width:0.264583px;stroke-linecap:butt;stroke-linejoin:miter;stroke-opacity:1"
         d="m 104.11306,127.29772 8.35927,6.2788 -8.64289,6.29818 -8.330864,-6.60776 z"
         id="path415" />
    </g>
    <g
       id="g15157"
       transform="matrix(1.7351141,0,0,1.7351141,-50.246911,-98.42637)">
      <path
         style="fill:#ffcc00;fill-opacity:1;stroke:none;stroke-width:0.264583px;stroke-linecap:butt;stroke-linejoin:miter;stroke-opacity:1"
         d="m 107.80239,182.03703 8.77692,-0.0165 c 0,0 0.20971,-0.13835 0.24157,-0.24968 0.13037,-0.45555 -0.21119,-1.01119 -0.2983,-1.38986 -0.1407,-0.135 -0.54228,-0.0261 -0.67938,-0.16473 -0.34279,-0.3442 -0.0586,-1.50427 -0.23905,-2.06909 -0.35043,-0.0142 -0.79342,0.0198 -1.33856,-0.0148 -0.14107,0.73111 0.23828,1.6198 -0.28722,2.08421 -0.84751,0.14879 -1.65225,0.0216 -2.47835,0.0339 -0.94195,0.014 -1.90806,-0.16706 -2.82579,0.0456 -0.26565,0.0616 -0.58355,0.12484 -0.74038,0.3479 -0.26827,0.38156 -0.13146,1.3931 -0.13146,1.3931"
         id="path13368"
         sodipodi:nodetypes="ccscccccsssc" />
      <g
         id="g14705"
         transform="matrix(-1,0,0,1,225.2071,-5.9287789)">
        <path
           style="fill:#ffcc00;fill-opacity:1;stroke:none;stroke-width:0.264583px;stroke-linecap:butt;stroke-linejoin:miter;stroke-opacity:1"
           d="m 98.572184,187.85466 8.776916,-0.0165 c 0,0 0.20971,-0.13835 0.24157,-0.24968 0.13037,-0.45555 -0.21119,-1.01119 -0.2983,-1.38986 -0.1407,-0.135 -0.54228,-0.0261 -0.67938,-0.16473 -0.34279,-0.3442 -0.0586,-1.50427 -0.23905,-2.06909 -0.35043,-0.0142 -0.79342,0.0198 -1.33856,-0.0148 -0.14107,0.73111 0.23828,1.6198 -0.28722,2.08421 -0.84751,0.14879 -1.65225,0.0216 -2.47835,0.0339 -0.94195,0.014 -1.90806,-0.16706 -2.825792,0.0456 -0.265643,0.0616 -0.583543,0.12484 -0.740379,0.3479 -0.268273,0.38156 -0.131455,1.3931 -0.131455,1.3931"
           id="path14693"
           sodipodi:nodetypes="ccscccccsssc" />
        <g
           id="g14703"
           transform="translate(12.047291,5.6235569)">
          <path
             style="fill:none;stroke:#333333;stroke-width:0.264583px;stroke-linecap:butt;stroke-linejoin:miter;stroke-opacity:1"
             d="m 92.988086,178.32646 1.33857,0.0148 c 0,0 0.0024,1.57605 0.140408,2.01744 0.05714,0.18281 0.269904,0.0529 0.445717,0.12887 0.197317,0.0853 0.365316,0.27167 0.436872,0.47438 0.125815,0.35641 0.335419,1.21818 -0.07674,1.23514 -1.930218,0.0795 -5.654688,0.035 -5.654688,0.035 0,0 -0.191845,-0.99803 0.03535,-1.40941 0.110096,-0.19935 0.341383,-0.36947 0.568947,-0.37823 0.289606,-0.0111 0.74817,0.0983 2.478351,-0.0338 0.292014,-0.0618 0.287213,-2.08421 0.287213,-2.08421 z"
             id="path14695"
             sodipodi:nodetypes="ccsssscsscc" />
          <path
             style="fill:none;stroke:#333333;stroke-width:0.264583px;stroke-linecap:butt;stroke-linejoin:miter;stroke-opacity:1"
             d="m 89.618224,182.23211 -1.320231,-0.001 c 0,0 -0.07695,-0.91801 0.08098,-1.33487 0.07376,-0.19469 0.117987,-0.44125 0.325483,-0.42424 0.491412,0.0403 1.518067,-0.0275 1.518067,-0.0275"
             id="path14697"
             sodipodi:nodetypes="ccssc" />
          <path
             style="fill:none;stroke:#333333;stroke-width:0.264583px;stroke-linecap:butt;stroke-linejoin:miter;stroke-opacity:1"
             d="m 88.650838,182.23211 -1.320231,-0.001 c 0,0 -0.07694,-0.91801 0.08098,-1.33487 0.07376,-0.19469 -0.01953,-0.23418 0.16885,-0.32281 0.44017,-0.20709 1.6747,-0.12889 1.6747,-0.12889"
             id="path14699"
             sodipodi:nodetypes="ccssc" />
          <path
             style="fill:none;stroke:#333333;stroke-width:0.264583px;stroke-linecap:butt;stroke-linejoin:miter;stroke-opacity:1"
             d="m 87.845124,182.23211 -1.320231,-0.001 c 0,0 -0.08605,-0.7837 0.07188,-1.20056 0.07376,-0.19469 0.196367,-0.40337 0.384752,-0.492 0.440169,-0.20709 1.467899,-0.094 1.467899,-0.094"
             id="path14701"
             sodipodi:nodetypes="ccssc" />
        </g>
      </g>
      <path
         style="fill:#333333;fill-opacity:1;stroke:#333333;stroke-width:0.264583;stroke-opacity:1"
         d="m 128.16571,161.25297 0.13392,3.09107 v 2.74983 c 0,0 1.58975,11.55236 -2.43032,11.84548 -0.15413,-0.43107 2.47626,-3.20872 0.14719,-2.44236 -0.29517,0.0971 -0.82822,0.35232 -0.85011,0.0423 -0.0374,-0.52901 0.81453,-2.86524 0.0318,-1.97149 -0.28034,0.32012 -0.90049,1.21182 -0.99692,0.79736 -0.27903,-1.1992 1.19628,-6.42865 -0.14566,-5.28584 -0.76163,0.64861 -0.71211,4.62437 -1.0711,3.46873 -0.3598,-1.15821 -0.3115,-2.28568 -0.26356,-3.43207 0.044,-1.05195 0.50395,-3.11816 0.50395,-3.11816 0,0 0.13369,-0.75423 0.15987,-1.1356 0.1011,-1.47275 -0.0123,-4.42862 -0.0123,-4.42862 v -1.11852 l 4.75968,-0.0327 z"
         id="path16"
         sodipodi:nodetypes="ccccssssssscscccc" />
      <path
         style="fill:#333333;fill-opacity:1;stroke:#333333;stroke-width:0.342551;stroke-opacity:1"
         d="m 121.17557,161.88989 0.09,4.43397 0.13721,1.33643 c 0,0 -0.30951,5.02196 -0.66495,7.49918 -0.1519,1.05873 -0.49355,3.12242 -0.49355,3.12242 l -0.37617,-0.1495 -0.36084,0.1595 -0.36229,-0.10116 -0.37472,0.11116 -0.96381,-5.11633 -0.28446,-2.53142 -0.702,-0.68376 -0.46571,2.77442 c -0.10997,0.65515 -0.41626,3.5713 -0.60573,5.57195 l -0.44302,-0.11261 -0.3984,0.14561 -0.44559,-0.14188 -0.39584,0.17488 -0.80021,-3.27508 c 0,0 -0.53199,-9.15105 -0.48759,-9.52781 0.17153,-1.45498 0.26507,-3.51167 0.26507,-3.51167 v -1.10502 l 8.07566,-0.0323 z"
         id="path17"
         sodipodi:nodetypes="cccsccccccccsccccccscccc" />
      <path
         style="fill:#ff6600;fill-opacity:1;stroke:#ff6600;stroke-width:0.264583;stroke-opacity:1"
         d="m 109.74187,152.52566 c 0,0 -1.83052,-0.14955 -2.23612,0.49741 -1.42051,2.26579 -1.49223,8.2299 -1.49223,8.2299 l 3.40281,-0.0453 1.39042,0.22606 v -3.7532 l 1.22092,2.75838 0.47612,5.20021 c 0,0 0.83022,-0.1868 1.25272,-0.22609 2.17741,-0.20248 4.39052,-0.31791 6.56024,-0.0452 0.41194,0.0518 1.20463,0.31653 1.20463,0.31653 l 0.54496,-5.51675 1.08526,-2.48706 v 3.70798 l 1.67312,-0.18087 3.301,-0.13568 c 0,0 0.27902,-5.93322 -1.53745,-7.91337 -0.55683,-0.60701 -2.37625,-0.67833 -2.37625,-0.67833 l -14.47015,0.0453"
         id="path18"
         sodipodi:nodetypes="ccccccccssccccccccc" />
      <path
         style="fill:#1a1a1a;fill-opacity:1;stroke:#333333;stroke-width:0.264583;stroke-opacity:1"
         d="m 106.01352,161.25297 -0.13392,3.09107 c 0,0 0.10252,5.06681 0.506,7.54447 0.40348,2.47767 2.23223,6.85112 2.23223,6.85112 0,0 -0.48296,-2.72513 -0.24994,-3.17327 0.23303,-0.44815 0.94022,1.68336 0.95668,1.35077 0.0329,-0.6652 -0.27073,-1.40935 -0.28456,-1.88626 -0.10113,-3.48919 0.86974,0.56706 1.04618,0.27427 0.90253,-1.49766 -0.48675,-3.79758 -0.0919,-5.10135 0.36352,-1.20045 1.03196,5.41615 1.26721,2.85671 0.23525,-2.55943 -0.0735,-3.84012 -0.30716,-6.06253 -0.04,-0.38017 -0.13369,-0.75423 -0.15987,-1.1356 -0.1011,-1.47275 0.0123,-4.42862 0.0123,-4.42862 v -1.11852 l -4.75968,-0.0327 z"
         id="path15"
         sodipodi:nodetypes="ccscssssszsscccc" />
      <g
         id="g42"
         transform="matrix(0.04658973,0,0,0.04658973,112.69101,153.34846)"
         style="fill:#ffffff">
        <path
           style="fill:#ffffff;fill-opacity:1;stroke:none;stroke-width:0.264583;stroke-opacity:1"
           d="m 156.38648,129.96998 10.32334,-1.40689 -0.74096,10.10404 -10.56926,1.40689 z"
           id="path35"
           sodipodi:nodetypes="ccccc" />
        <path
           style="fill:#ffffff;fill-opacity:1;stroke:none;stroke-width:0.264583;stroke-opacity:1"
           d="m 178.09172,108.26474 10.32334,-1.40689 -0.74096,10.10404 -10.56926,1.40689 z"
           id="path36"
           sodipodi:nodetypes="ccccc" />
        <path
           style="fill:#ffffff;fill-opacity:1;stroke:none;stroke-width:0.264583;stroke-opacity:1"
           d="m 178.68068,138.98479 -1.40689,-10.32334 10.10404,0.74096 1.40689,10.56926 z"
           id="path37"
           sodipodi:nodetypes="ccccc" />
        <path
           style="fill:#ffffff;fill-opacity:1;stroke:none;stroke-width:0.264583;stroke-opacity:1"
           d="m 156.70412,117.27955 -1.40689,-10.32333 10.10404,0.74096 1.40689,10.56925 z"
           id="path38"
           sodipodi:nodetypes="ccccc" />
        <path
           style="fill:#ffffff;fill-opacity:1;stroke:none;stroke-width:0.264583;stroke-opacity:1"
           d="m 165.7551,139.08157 6.30488,-8.29451 6.6207,7.66856 -6.47877,8.46841 z"
           id="path39"
           sodipodi:nodetypes="ccccc" />
        <path
           style="fill:#ffffff;fill-opacity:1;stroke:none;stroke-width:0.264583;stroke-opacity:1"
           d="m 165.62501,108.49389 6.30488,-8.29452 6.6207,7.66857 -6.47877,8.46841 z"
           id="path40"
           sodipodi:nodetypes="ccccc" />
        <path
           style="fill:#ffffff;fill-opacity:1;stroke:none;stroke-width:0.264583;stroke-opacity:1"
           d="m 157.21008,129.76787 -8.29452,-6.30488 7.66857,-6.6207 8.46841,6.47877 z"
           id="path41"
           sodipodi:nodetypes="ccccc" />
        <path
           style="fill:#ffffff;fill-opacity:1;stroke:none;stroke-width:0.264583;stroke-opacity:1"
           d="m 187.42648,129.76787 -8.29452,-6.30488 7.66857,-6.6207 8.46841,6.47877 z"
           id="path42"
           sodipodi:nodetypes="ccccc" />
      </g>
      <path
         style="fill:#333333;stroke:#333333;stroke-width:0.264583;stroke-opacity:1"
         d="m 109.74187,152.52566 c 0.618,-0.72351 1.23598,-1.447 1.61282,-2.75085 0.37683,-1.30385 0.51248,-3.18794 0.64814,-5.07208 0.79887,-0.97975 1.59775,-1.9595 2.95433,-2.41924 1.35658,-0.45973 3.27086,-0.39946 4.37873,-0.25627 1.10787,0.14319 1.40933,0.36929 1.81631,0.85164 0.40698,0.48234 0.91945,1.22091 1.43194,1.95949 0.15073,2.1856 0.30146,4.37119 0.57278,5.64487 0.27132,1.27368 0.66321,1.63543 1.05511,1.99718 -0.37683,0 -0.75365,0 -0.66321,0.23363 0.0904,0.23364 0.64814,0.7009 1.20584,1.16817 0,0 -2.08008,0 -2.08008,0 0,0 0.58785,1.98964 0.58785,1.98964 0,0 -2.30618,0 -2.30618,0 0,0 -0.13566,1.62789 -0.13566,1.62789 0,0 -2.12531,-0.67828 -2.12531,-0.67828 0,0 -1.1757,1.58267 -1.1757,1.58267 0,0 -2.08008,-1.53745 -2.08008,-1.53745 0,0 -1.80877,0.81394 -1.80877,0.81394 0,0 -0.27132,-1.71833 -0.27132,-1.71833 0,0 -2.1253,-0.0452 -2.1253,-0.0452 0,0 0.36175,-1.94443 0.36175,-1.94443 0,0 -1.89921,0 -1.89921,0 0.42205,-0.51248 0.8441,-1.02497 0.85164,-1.26614 0.008,-0.24118 -0.39944,-0.21104 -0.60293,-0.19598 -0.20349,0.0151 -0.20349,0.0151 -0.20349,0.0151 z"
         id="path19"
         inkscape:path-effect="#path-effect27"
         inkscape:original-d="m 109.74187,152.52566 c 0,0 1.23598,-1.447 1.85399,-2.17052 0.13566,-1.88418 0.40697,-5.65241 0.40697,-5.65241 0,0 1.59775,-1.9595 2.39662,-2.93925 1.91429,0.0603 3.82857,0.12055 5.74285,0.18083 0.30146,0.2261 0.60292,0.4522 0.90438,0.6783 0.5125,0.73859 1.53746,2.21574 1.53746,2.21574 0,0 0.30146,4.37119 0.45219,6.55679 0.39191,0.36176 1.1757,1.08526 1.1757,1.08526 -0.37683,0 -0.75365,0 -1.13048,0 0.5577,0.46727 1.67311,1.4018 1.67311,1.4018 h -2.08008 l 0.58785,1.98964 h -2.30618 l -0.13566,1.62789 -2.12531,-0.67828 -1.1757,1.58267 -2.08008,-1.53745 -1.80877,0.81394 -0.27132,-1.71833 -2.1253,-0.0452 0.36175,-1.94443 h -1.89921 c 0,0 0.8441,-1.02497 1.26614,-1.53745 -0.40697,0.0301 -0.81394,0.0603 -1.22092,0.0904 z"
         sodipodi:nodetypes="cccccccccccccccccccccccccc" />
      <path
         style="fill:#1a1a1a;fill-opacity:1;stroke:#1a1a1a;stroke-width:0.264583px;stroke-linecap:butt;stroke-linejoin:miter;stroke-opacity:1"
         d="m 113.75651,165.41303 -0.65633,7.76592 -0.59639,-7.53983 1.25272,-0.22609"
         id="path6633" />
      <path
         style="fill:#d45500;fill-opacity:1;stroke:#d45500;stroke-width:0.264583;stroke-opacity:1"
         d="m 109.74187,152.52566 c 0,0 -1.83052,-0.14955 -2.23612,0.49741 -1.42051,2.26579 -1.49223,8.2299 -1.49223,8.2299 l 3.40281,-0.0453 1.39042,0.22606 v -3.7532 l 1.22092,2.75838 0.47612,5.20021 c 0,0 0.83022,-0.1868 1.25272,-0.22609 l 3.22044,-12.9101"
         id="path52"
         sodipodi:nodetypes="cccccccccc" />
      <path
         style="fill:#1a1a1a;stroke:#1a1a1a;stroke-width:0.264583;stroke-opacity:1"
         d="m 109.74187,152.52566 c 0.618,-0.72351 1.23598,-1.447 1.61282,-2.75085 0.37683,-1.30385 0.51248,-3.18794 0.64814,-5.07208 0.79887,-0.97975 1.59775,-1.9595 2.95433,-2.41924 1.35658,-0.45973 3.27086,-0.39946 4.37873,-0.25627 1.10787,0.14319 1.40933,0.36929 1.70615,0.89937 0.29681,0.53009 0.58897,1.36414 0.88114,2.1982 0,0 -6.04556,12.0657 -6.04556,12.0657 0,0 -2.24689,0.49012 -2.24689,0.49012 -0.0904,-0.57278 -0.18088,-1.14555 -0.58032,-1.43947 -0.39944,-0.29393 -1.10787,-0.30899 -1.40179,-0.6406 -0.29393,-0.3316 -0.17334,-0.97975 -0.42959,-1.30382 -0.25624,-0.32407 -0.88931,-0.32407 -1.52238,-0.32407 0.42205,-0.51248 0.8441,-1.02497 0.85164,-1.26614 0.008,-0.24118 -0.39944,-0.21104 -0.60293,-0.19598 -0.20349,0.0151 -0.20349,0.0151 -0.20349,0.0151 z"
         id="path51"
         inkscape:path-effect="#path-effect52"
         inkscape:original-d="m 109.74187,152.52566 c 0,0 1.23598,-1.447 1.85399,-2.17052 0.13566,-1.88418 0.40697,-5.65241 0.40697,-5.65241 0,0 1.59775,-1.9595 2.39662,-2.93925 1.91429,0.0603 3.82857,0.12055 5.74285,0.18083 0.30146,0.2261 0.60292,0.4522 0.90438,0.6783 0.29217,0.83407 0.8765,2.50218 0.8765,2.50218 l -6.04556,12.0657 -2.24689,0.49012 c 0,0 -0.18088,-1.14555 -0.27132,-1.71833 -0.70844,-0.0151 -1.41687,-0.0301 -2.1253,-0.0452 0.12058,-0.64814 0.24117,-1.29629 0.36175,-1.94443 -0.63307,0 -1.26614,0 -1.89921,0 0,0 0.8441,-1.02497 1.26614,-1.53745 -0.40697,0.0301 -0.81394,0.0603 -1.22092,0.0904 z"
         sodipodi:nodetypes="cccccccccccccccc" />
      <path
         style="fill:#ffcc00;stroke:#000000;stroke-width:0.264583;stroke-opacity:1"
         d="m 113.22208,148.36549 1.98965,-0.90439 0.58785,-0.85916 0.13566,-1.08526 0.0452,-0.4522 2.26096,-0.0904 0.58785,1.98964 0.36175,0.40697 1.94443,0.99483 0.2261,0.76873 -1.76356,0.76863 -0.7235,0.9497 -0.99483,1.26614 h -1.1757 l -0.99482,-1.31136 -1.04004,-0.90448 -1.44702,-0.81385 z"
         id="path20" />
      <path
         style="fill:#ffffff;stroke:#000000;stroke-width:0.264583;stroke-opacity:1"
         d="m 113.44818,144.04705 1.37918,0.79073 c 0,0 0.15358,1.26242 -0.0678,1.83199 -0.14756,0.37965 -0.38731,0.8794 -0.79133,0.93111 -0.48398,0.0619 -0.9732,-0.40778 -1.19831,-0.84068 -0.29563,-0.56854 0,-1.92242 0,-1.92242 z"
         id="path21"
         sodipodi:nodetypes="ccssscc" />
      <ellipse
         style="fill:#ffffff;stroke:#ffffff;stroke-width:0.0909737;stroke-opacity:1"
         id="ellipse21"
         cx="118.07508"
         cy="146.16769"
         rx="0.05835956"
         ry="0.11728278" />
      <path
         style="fill:#ffffff;stroke:#000000;stroke-width:0.264583;stroke-opacity:1"
         d="m 120.62646,144.04705 -1.37918,0.79073 c 0,0 -0.15358,1.26242 0.0678,1.83199 0.14756,0.37965 0.38731,0.8794 0.79133,0.93111 0.48398,0.0619 0.9732,-0.40778 1.19831,-0.84068 0.29563,-0.56854 0,-1.92242 0,-1.92242 z"
         id="path22"
         sodipodi:nodetypes="ccssscc" />
      <ellipse
         style="fill:#000000;fill-opacity:1;stroke:#000000;stroke-width:0.690244;stroke-opacity:1"
         id="ellipse22"
         cx="114.2064"
         cy="145.72206"
         rx="0.41099888"
         ry="0.95868999" />
      <ellipse
         style="fill:#000000;fill-opacity:1;stroke:#000000;stroke-width:0.690244;stroke-opacity:1"
         id="ellipse23"
         cx="119.95261"
         cy="145.72206"
         rx="0.41099888"
         ry="0.95868999" />
      <ellipse
         style="fill:#ffffff;stroke:#ffffff;stroke-width:0.230444;stroke-opacity:1"
         id="ellipse24"
         cx="114.61739"
         cy="146.01915"
         rx="0.14782953"
         ry="0.29708686" />
      <ellipse
         style="fill:#ffffff;stroke:#ffffff;stroke-width:0.230444;stroke-opacity:1"
         id="ellipse25"
         cx="119.47662"
         cy="146.01915"
         rx="0.14782953"
         ry="0.29708686" />
      <path
         style="fill:#d4aa00;stroke:#000000;stroke-width:0.264583;stroke-opacity:1"
         d="m 113.22208,148.36549 1.98965,-0.90439 0.58785,-0.85916 0.18088,-1.53746 1.13048,-0.0452 0.19465,0.0879 -0.0138,7.01151 h -0.58785 l -0.79134,-0.65568 -1.24352,-1.56016 -1.44702,-0.81385 z"
         id="path25"
         sodipodi:nodetypes="cccccccccccc" />
      <path
         style="fill:#1a1a1a;stroke:#000000;stroke-width:0.264583;stroke-opacity:1"
         d="m 114.15952,149.04408 1.40689,1e-5 1.73918,1.99843 1.39436,-1.91849 1.87053,-0.048 -1.26301,0.60752 -2.00188,1.87053 -1.97899,-1.65126 z"
         id="path26"
         sodipodi:nodetypes="ccccccccc" />
      <ellipse
         style="fill:#ffffff;stroke:#ffffff;stroke-width:0.0909737;stroke-opacity:1"
         id="ellipse26"
         cx="116.38987"
         cy="146.16769"
         rx="0.05835956"
         ry="0.11728278" />
      <path
         style="fill:#d4aa00;fill-opacity:1;stroke:none;stroke-width:0.264583px;stroke-linecap:butt;stroke-linejoin:miter;stroke-opacity:1"
         d="m 112.67909,180.25414 -0.16902,1.74974 -4.70768,0.0332 c 0,0 -0.1097,-1.77206 0.50599,-1.77645 1.41854,-0.0101 4.37071,-0.006 4.37071,-0.006 z"
         id="path14820"
         sodipodi:nodetypes="cccsc" />
      <g
         id="g13106"
         transform="translate(21.277501,-0.19407)">
        <path
           style="fill:none;stroke:#333333;stroke-width:0.264583px;stroke-linecap:butt;stroke-linejoin:miter;stroke-opacity:1"
           d="m 92.988086,178.32646 1.33857,0.0148 c 0,0 0.0024,1.57605 0.140408,2.01744 0.05714,0.18281 0.269904,0.0529 0.445717,0.12887 0.197317,0.0853 0.365316,0.27167 0.436872,0.47438 0.125815,0.35641 0.335419,1.21818 -0.07674,1.23514 -1.930218,0.0795 -5.654688,0.035 -5.654688,0.035 0,0 -0.191845,-0.99803 0.03535,-1.40941 0.110096,-0.19935 0.341383,-0.36947 0.568947,-0.37823 0.289606,-0.0111 0.74817,0.0983 2.478351,-0.0338 0.292014,-0.0618 0.287213,-2.08421 0.287213,-2.08421 z"
           id="path13098"
           sodipodi:nodetypes="ccsssscsscc" />
        <path
           style="fill:none;stroke:#333333;stroke-width:0.264583px;stroke-linecap:butt;stroke-linejoin:miter;stroke-opacity:1"
           d="m 89.618224,182.23211 -1.320231,-0.001 c 0,0 -0.07695,-0.91801 0.08098,-1.33487 0.07376,-0.19469 0.117987,-0.44125 0.325483,-0.42424 0.491412,0.0403 1.518067,-0.0275 1.518067,-0.0275"
           id="path13100"
           sodipodi:nodetypes="ccssc" />
        <path
           style="fill:none;stroke:#333333;stroke-width:0.264583px;stroke-linecap:butt;stroke-linejoin:miter;stroke-opacity:1"
           d="m 88.650838,182.23211 -1.320231,-0.001 c 0,0 -0.07694,-0.91801 0.08098,-1.33487 0.07376,-0.19469 -0.01953,-0.23418 0.16885,-0.32281 0.44017,-0.20709 1.6747,-0.12889 1.6747,-0.12889"
           id="path13102"
           sodipodi:nodetypes="ccssc" />
        <path
           style="fill:none;stroke:#333333;stroke-width:0.264583px;stroke-linecap:butt;stroke-linejoin:miter;stroke-opacity:1"
           d="m 87.845124,182.23211 -1.320231,-0.001 c 0,0 -0.08605,-0.7837 0.07188,-1.20056 0.07376,-0.19469 0.196367,-0.40337 0.384752,-0.492 0.440169,-0.20709 1.467899,-0.094 1.467899,-0.094"
           id="path13104"
           sodipodi:nodetypes="ccssc" />
      </g>
    </g>
    <g
       id="g75"
       transform="matrix(1.9246752,0,0,1.9246752,-60.266961,-186.07076)"
       clip-path="url(#clipPath375)"
       mask="none">
      <path
         style="fill:#333333;fill-opacity:1;stroke:#333333;stroke-width:0.264583;stroke-opacity:1"
         d="m 135.34293,161.38748 0.13392,3.09107 v 2.74983 l -5.0747,-0.0959 c 0,0 0.13369,-0.75423 0.15987,-1.1356 0.1011,-1.47275 -0.0123,-4.42862 -0.0123,-4.42862 v -1.11852 l 4.75968,-0.0327 z"
         id="path54"
         sodipodi:nodetypes="ccccscccc" />
      <path
         style="fill:#333333;fill-opacity:1;stroke:#333333;stroke-width:0.342551;stroke-opacity:1"
         d="m 128.35279,162.0244 0.09,4.43397 0.13721,1.33643 -8.61015,-0.0947 c 0,0 -0.0591,-1.60863 -0.0147,-1.98539 0.17153,-1.45498 0.26507,-3.51167 0.26507,-3.51167 v -1.10502 l 8.07566,-0.0323 z"
         id="path55"
         sodipodi:nodetypes="ccccscccc" />
      <path
         style="fill:#ff6600;fill-opacity:1;stroke:#ff6600;stroke-width:0.264583;stroke-opacity:1"
         d="m 116.91909,152.66017 c 0,0 -1.83052,-0.14955 -2.23612,0.49741 -1.42051,2.26579 -1.49223,8.2299 -1.49223,8.2299 l 3.40281,-0.0453 1.39042,0.22606 v -3.7532 l 1.22092,2.75838 0.47612,5.20021 c 0,0 0.83022,-0.1868 1.25272,-0.22609 2.17741,-0.20248 4.39052,-0.31791 6.56024,-0.0452 0.41194,0.0518 1.20463,0.31653 1.20463,0.31653 l 0.54496,-5.51675 1.08526,-2.48706 v 3.70798 l 1.67312,-0.18087 3.301,-0.13568 c 0,0 0.27902,-5.93322 -1.53745,-7.91337 -0.55683,-0.60701 -2.37625,-0.67833 -2.37625,-0.67833 l -14.47015,0.0453"
         id="path56"
         sodipodi:nodetypes="ccccccccssccccccccc" />
      <path
         style="fill:#1a1a1a;fill-opacity:1;stroke:#333333;stroke-width:0.264583;stroke-opacity:1"
         d="m 113.19074,161.38748 -0.13392,3.09107 v 2.74983 l 5.0747,-0.0959 c 0,0 -0.13369,-0.75423 -0.15987,-1.1356 -0.1011,-1.47275 0.0123,-4.42862 0.0123,-4.42862 v -1.11852 l -4.75968,-0.0327 z"
         id="path57"
         sodipodi:nodetypes="ccccscccc" />
      <path
         style="fill:#d45500;fill-opacity:1;stroke:#d45500;stroke-width:0.264583;stroke-opacity:1"
         d="m 116.91909,152.66017 c 0,0 -1.83052,-0.14955 -2.23612,0.49741 -1.42051,2.26579 -1.49223,8.2299 -1.49223,8.2299 l 3.40281,-0.0453 1.39042,0.22606 v -3.7532 l 1.22092,2.75838 0.47612,5.20021 c 0,0 0.83022,-0.1868 1.25272,-0.22609 l 3.22044,-12.9101"
         id="path58"
         sodipodi:nodetypes="cccccccccc" />
      <g
         id="g66"
         transform="matrix(0.04658973,0,0,0.04658973,119.86823,153.48297)"
         style="fill:#ffffff">
        <path
           style="fill:#ffffff;fill-opacity:1;stroke:none;stroke-width:0.264583;stroke-opacity:1"
           d="m 156.38648,129.96998 10.32334,-1.40689 -0.74096,10.10404 -10.56926,1.40689 z"
           id="path59"
           sodipodi:nodetypes="ccccc" />
        <path
           style="fill:#ffffff;fill-opacity:1;stroke:none;stroke-width:0.264583;stroke-opacity:1"
           d="m 178.09172,108.26474 10.32334,-1.40689 -0.74096,10.10404 -10.56926,1.40689 z"
           id="path60"
           sodipodi:nodetypes="ccccc" />
        <path
           style="fill:#ffffff;fill-opacity:1;stroke:none;stroke-width:0.264583;stroke-opacity:1"
           d="m 178.68068,138.98479 -1.40689,-10.32334 10.10404,0.74096 1.40689,10.56926 z"
           id="path61"
           sodipodi:nodetypes="ccccc" />
        <path
           style="fill:#ffffff;fill-opacity:1;stroke:none;stroke-width:0.264583;stroke-opacity:1"
           d="m 156.70412,117.27955 -1.40689,-10.32333 10.10404,0.74096 1.40689,10.56925 z"
           id="path62"
           sodipodi:nodetypes="ccccc" />
        <path
           style="fill:#ffffff;fill-opacity:1;stroke:none;stroke-width:0.264583;stroke-opacity:1"
           d="m 165.7551,139.08157 6.30488,-8.29451 6.6207,7.66856 -6.47877,8.46841 z"
           id="path63"
           sodipodi:nodetypes="ccccc" />
        <path
           style="fill:#ffffff;fill-opacity:1;stroke:none;stroke-width:0.264583;stroke-opacity:1"
           d="m 165.62501,108.49389 6.30488,-8.29452 6.6207,7.66857 -6.47877,8.46841 z"
           id="path64"
           sodipodi:nodetypes="ccccc" />
        <path
           style="fill:#ffffff;fill-opacity:1;stroke:none;stroke-width:0.264583;stroke-opacity:1"
           d="m 157.21008,129.76787 -8.29452,-6.30488 7.66857,-6.6207 8.46841,6.47877 z"
           id="path65"
           sodipodi:nodetypes="ccccc" />
        <path
           style="fill:#ffffff;fill-opacity:1;stroke:none;stroke-width:0.264583;stroke-opacity:1"
           d="m 187.42648,129.76787 -8.29452,-6.30488 7.66857,-6.6207 8.46841,6.47877 z"
           id="path66"
           sodipodi:nodetypes="ccccc" />
      </g>
      <path
         style="fill:#333333;stroke:#333333;stroke-width:0.264583;stroke-opacity:1"
         d="m 88.448842,152.66017 c 0.617997,-0.72351 1.235981,-1.447 1.612816,-2.75085 0.376834,-1.30385 0.512489,-3.18794 0.648146,-5.07208 0.798873,-0.97975 1.597747,-1.9595 2.954325,-2.41924 1.356578,-0.45973 3.270858,-0.39946 4.37873,-0.25627 1.107872,0.14319 1.409332,0.36929 1.81631,0.85164 0.406981,0.48234 0.919451,1.22091 1.431941,1.95949 0.15073,2.1856 0.30146,4.37119 0.57278,5.64487 0.27132,1.27368 0.66321,1.63543 1.05511,1.99718 -0.37683,0 -0.75365,0 -0.66321,0.23363 0.0904,0.23364 0.64814,0.7009 1.20584,1.16817 0,0 -2.08008,0 -2.08008,0 0,0 0.58785,1.98964 0.58785,1.98964 0,0 -2.306186,0 -2.306186,0 0,0 -0.135657,1.62789 -0.135657,1.62789 0,0 -2.125305,-0.67828 -2.125305,-0.67828 0,0 -1.1757,1.58267 -1.1757,1.58267 0,0 -2.080085,-1.53745 -2.080085,-1.53745 0,0 -1.808771,0.81394 -1.808771,0.81394 0,0 -0.271315,-1.71833 -0.271315,-1.71833 0,0 -2.125305,-0.0452 -2.125305,-0.0452 0,0 0.361754,-1.94443 0.361754,-1.94443 0,0 -1.899208,0 -1.899208,0 0.422047,-0.51248 0.844095,-1.02497 0.851632,-1.26614 0.0075,-0.24118 -0.399441,-0.21104 -0.602927,-0.19598 -0.203485,0.0151 -0.203485,0.0151 -0.203485,0.0151 z"
         id="path67"
         sodipodi:nodetypes="cccccccccccccccccccccccccc"
         transform="translate(28.470248)"
         inkscape:original-d="m 88.448842,152.66017 c 0,0 1.235979,-1.447 1.85399,-2.17052 0.135661,-1.88418 0.406972,-5.65241 0.406972,-5.65241 0,0 1.597747,-1.9595 2.39662,-2.93925 1.914282,0.0603 3.828563,0.12055 5.742845,0.18083 0.301462,0.2261 0.602921,0.4522 0.904385,0.6783 0.512496,0.73859 1.537456,2.21574 1.537456,2.21574 0,0 0.30146,4.37119 0.45219,6.55679 0.39191,0.36176 1.1757,1.08526 1.1757,1.08526 -0.37683,0 -0.75365,0 -1.13048,0 0.5577,0.46727 1.67311,1.4018 1.67311,1.4018 h -2.08008 l 0.58785,1.98964 h -2.306186 l -0.135657,1.62789 -2.125305,-0.67828 -1.1757,1.58267 -2.080085,-1.53745 -1.808771,0.81394 -0.271315,-1.71833 -2.125305,-0.0452 0.361754,-1.94443 h -1.899208 c 0,0 0.844093,-1.02497 1.26614,-1.53745 -0.406973,0.0301 -0.813947,0.0603 -1.22092,0.0904 z"
         inkscape:path-effect="#path-effect76" />
      <path
         style="fill:#1a1a1a;stroke:#1a1a1a;stroke-width:0.264583;stroke-opacity:1"
         d="m 88.448842,152.66017 c 0.617997,-0.72351 1.235981,-1.447 1.612816,-2.75085 0.376834,-1.30385 0.512489,-3.18794 0.648146,-5.07208 0.798873,-0.97975 1.597747,-1.9595 2.954325,-2.41924 1.356578,-0.45973 3.270858,-0.39946 4.37873,-0.25627 1.107872,0.14319 1.409332,0.36929 1.706148,0.89937 0.296813,0.53009 0.588973,1.36414 0.881143,2.1982 0,0 -6.045566,12.0657 -6.045566,12.0657 0,0 -2.246888,0.49012 -2.246888,0.49012 -0.09044,-0.57278 -0.180876,-1.14555 -0.580315,-1.43947 -0.399439,-0.29393 -1.107869,-0.30899 -1.401795,-0.6406 -0.293926,-0.3316 -0.17334,-0.97975 -0.429583,-1.30382 -0.256242,-0.32407 -0.889312,-0.32407 -1.522381,-0.32407 0.422047,-0.51248 0.844095,-1.02497 0.851632,-1.26614 0.0075,-0.24118 -0.399441,-0.21104 -0.602927,-0.19598 -0.203485,0.0151 -0.203485,0.0151 -0.203485,0.0151 z"
         id="path68"
         sodipodi:nodetypes="cccccccccccccccc"
         transform="translate(28.470248)"
         inkscape:original-d="m 88.448842,152.66017 c 0,0 1.235979,-1.447 1.85399,-2.17052 0.135661,-1.88418 0.406972,-5.65241 0.406972,-5.65241 0,0 1.597747,-1.9595 2.39662,-2.93925 1.914282,0.0603 3.828563,0.12055 5.742845,0.18083 0.301462,0.2261 0.602921,0.4522 0.904385,0.6783 0.292166,0.83407 0.876496,2.50218 0.876496,2.50218 l -6.045566,12.0657 -2.246888,0.49012 c 0,0 -0.180877,-1.14555 -0.271315,-1.71833 -0.708438,-0.0151 -1.41687,-0.0301 -2.125305,-0.0452 0.120585,-0.64814 0.241169,-1.29629 0.361754,-1.94443 -0.633069,0 -1.266139,0 -1.899208,0 0,0 0.844093,-1.02497 1.26614,-1.53745 -0.406973,0.0301 -0.813947,0.0603 -1.22092,0.0904 z"
         inkscape:path-effect="#path-effect78" />
      <path
         style="fill:#ffcc00;stroke:#000000;stroke-width:0.264583;stroke-opacity:1"
         d="m 120.3993,148.5 1.98965,-0.90439 0.58785,-0.85916 0.13566,-1.08526 0.0452,-0.4522 2.26096,-0.0904 0.58785,1.98964 0.36175,0.40697 1.94443,0.99483 0.2261,0.76873 -1.76356,0.76863 -0.7235,0.9497 -0.99483,1.26614 h -1.1757 l -0.99482,-1.31136 -1.04004,-0.90448 -1.44702,-0.81385 z"
         id="path69" />
      <path
         style="fill:#ffffff;stroke:#000000;stroke-width:0.264583;stroke-opacity:1"
         d="m 120.6254,144.18156 1.37918,0.79073 c 0,0 0.15358,1.26242 -0.0678,1.83199 -0.14756,0.37965 -0.38731,0.8794 -0.79133,0.93111 -0.48398,0.0619 -0.9732,-0.40778 -1.19831,-0.84068 -0.29563,-0.56854 0,-1.92242 0,-1.92242 z"
         id="path70"
         sodipodi:nodetypes="ccssscc" />
      <ellipse
         style="fill:#ffffff;stroke:#ffffff;stroke-width:0.0909737;stroke-opacity:1"
         id="ellipse70"
         cx="125.2523"
         cy="146.30219"
         rx="0.05835956"
         ry="0.11728278" />
      <path
         style="fill:#ffffff;stroke:#000000;stroke-width:0.264583;stroke-opacity:1"
         d="m 127.80368,144.18156 -1.37918,0.79073 c 0,0 -0.15358,1.26242 0.0678,1.83199 0.14756,0.37965 0.38731,0.8794 0.79133,0.93111 0.48398,0.0619 0.9732,-0.40778 1.19831,-0.84068 0.29563,-0.56854 0,-1.92242 0,-1.92242 z"
         id="path71"
         sodipodi:nodetypes="ccssscc" />
      <ellipse
         style="fill:#000000;fill-opacity:1;stroke:#000000;stroke-width:0.690244;stroke-opacity:1"
         id="ellipse71"
         cx="121.38362"
         cy="145.85655"
         rx="0.41099888"
         ry="0.95868999" />
      <ellipse
         style="fill:#000000;fill-opacity:1;stroke:#000000;stroke-width:0.690244;stroke-opacity:1"
         id="ellipse72"
         cx="127.12984"
         cy="145.85655"
         rx="0.41099888"
         ry="0.95868999" />
      <ellipse
         style="fill:#ffffff;stroke:#ffffff;stroke-width:0.230444;stroke-opacity:1"
         id="ellipse73"
         cx="121.79462"
         cy="146.15364"
         rx="0.14782953"
         ry="0.29708686" />
      <ellipse
         style="fill:#ffffff;stroke:#ffffff;stroke-width:0.230444;stroke-opacity:1"
         id="ellipse74"
         cx="126.65383"
         cy="146.15364"
         rx="0.14782953"
         ry="0.29708686" />
      <path
         style="fill:#d4aa00;stroke:#000000;stroke-width:0.264583;stroke-opacity:1"
         d="m 120.3993,148.5 1.98965,-0.90439 0.58785,-0.85916 0.18088,-1.53746 1.13048,-0.0452 0.19465,0.0879 -0.0138,7.01151 h -0.58785 l -0.79134,-0.65568 -1.24352,-1.56016 -1.44702,-0.81385 z"
         id="path74"
         sodipodi:nodetypes="cccccccccccc" />
      <path
         style="fill:#1a1a1a;stroke:#000000;stroke-width:0.264583;stroke-opacity:1"
         d="m 121.33674,149.17859 1.40689,10e-6 1.73918,1.99843 1.39436,-1.91849 1.87053,-0.048 -1.26301,0.60752 -2.00188,1.87053 -1.97899,-1.65126 z"
         id="path75"
         sodipodi:nodetypes="ccccccccc" />
      <ellipse
         style="fill:#ffffff;stroke:#ffffff;stroke-width:0.0909737;stroke-opacity:1"
         id="ellipse75"
         cx="123.56709"
         cy="146.30219"
         rx="0.05835956"
         ry="0.11728278" />
    </g>
  </g>
</svg>
